<svg width="45" height="45" viewBox="0 0 45 45" fill="none" xmlns="http://www.w3.org/2000/svg">
<g id="ic:twotone-search">
<path id="Vector" d="M29.0625 26.25H27.5813L27.0563 25.7438C28.9574 23.5389 30.0022 20.7238 30 17.8125C30 15.402 29.2852 13.0457 27.946 11.0415C26.6069 9.03727 24.7034 7.47517 22.4765 6.55272C20.2495 5.63028 17.799 5.38893 15.4348 5.85918C13.0707 6.32944 10.8991 7.49019 9.19464 9.19464C7.49019 10.8991 6.32944 13.0707 5.85918 15.4348C5.38893 17.799 5.63028 20.2495 6.55272 22.4765C7.47517 24.7034 9.03727 26.6069 11.0415 27.946C13.0457 29.2852 15.402 30 17.8125 30C20.8313 30 23.6063 28.8938 25.7438 27.0563L26.25 27.5813V29.0625L35.625 38.4188L38.4188 35.625L29.0625 26.25ZM17.8125 26.25C13.1438 26.25 9.37501 22.4813 9.37501 17.8125C9.37501 13.1438 13.1438 9.37501 17.8125 9.37501C22.4813 9.37501 26.25 13.1438 26.25 17.8125C26.25 22.4813 22.4813 26.25 17.8125 26.25Z" fill="black"/>
</g>
</svg>
