<svg width="65" height="65" viewBox="0 0 65 65" fill="none" xmlns="http://www.w3.org/2000/svg">
<g id="solar:cart-line-duotone">
<g id="Group">
<path id="Vector" d="M10.4651 43.2116C8.14131 33.9166 6.97943 29.2718 9.41964 26.1464C11.8598 23.021 16.6509 23.021 26.2303 23.021H38.7698C48.3519 23.021 53.1403 23.021 55.5805 26.1464C58.0207 29.2718 56.8588 33.9193 54.5351 43.2116C53.0563 49.1239 52.3196 52.0787 50.1151 53.8012C47.9105 55.521 44.8636 55.521 38.7698 55.521H26.2303C20.1365 55.521 17.0896 55.521 14.8851 53.8012C12.6805 52.0787 11.9411 49.1239 10.4651 43.2116Z" stroke="white" stroke-width="4.0625"/>
<path id="Vector_2" opacity="0.5" d="M52.8125 25.7293L50.8896 18.6741C50.1475 15.9522 49.7765 14.5927 49.0154 13.5662C48.2566 12.5464 47.2261 11.7608 46.0417 11.2993C44.85 10.8335 43.4417 10.8335 40.625 10.8335M12.1875 25.7293L14.1104 18.6741C14.8525 15.9522 15.2235 14.5927 15.9846 13.5662C16.7434 12.5464 17.7739 11.7608 18.9583 11.2993C20.15 10.8335 21.5583 10.8335 24.375 10.8335" stroke="white" stroke-width="4.0625"/>
<path id="Vector_3" d="M24.375 10.8333C24.375 10.115 24.6603 9.42616 25.1683 8.91825C25.6762 8.41034 26.365 8.125 27.0833 8.125H37.9167C38.635 8.125 39.3238 8.41034 39.8317 8.91825C40.3397 9.42616 40.625 10.115 40.625 10.8333C40.625 11.5516 40.3397 12.2405 39.8317 12.7484C39.3238 13.2563 38.635 13.5417 37.9167 13.5417H27.0833C26.365 13.5417 25.6762 13.2563 25.1683 12.7484C24.6603 12.2405 24.375 11.5516 24.375 10.8333Z" stroke="white" stroke-width="4.0625"/>
</g>
</g>
</svg>
